nColumns=19
nRows=35
DataType=double
version=3
OpenSimVersion=4.1
endheader
time	ground_force_calcn_r_vx	ground_force_calcn_r_vy	ground_force_calcn_r_vz	ground_force_calcn_r_px	ground_force_calcn_r_py	ground_force_calcn_r_pz	ground_force_calcn_r_mx	ground_force_calcn_r_my	ground_force_calcn_r_mz	ground_force_calcn_l_vx	ground_force_calcn_l_vy	ground_force_calcn_l_vz	ground_force_calcn_l_px	ground_force_calcn_l_py	ground_force_calcn_l_pz	ground_force_calcn_l_mx	ground_force_calcn_l_my	ground_force_calcn_l_mz
4.12	-0.0154224	0.0123486	0.00153108	1.51455	0	-0.446475	-7.47305e-19	5.98363e-19	7.41896e-20	-109.362	794.318	35.0552	2.03025	0	-0.590447	-0.194186	1.41041	0.062245
4.125	0.0704303	-0.0510378	-0.00428541	1.52252	0	-0.446671	2.62228e-18	-1.90025e-18	-1.59555e-19	-106.267	801.434	34.6924	2.03072	0	-0.590638	-0.161442	1.21754	0.0527048
4.13	0.0415021	-0.0275615	-0.00143325	1.53183	0	-0.446751	-1.72505e-18	1.14561e-18	5.95738e-20	-103.221	805.942	34.5604	2.0312	0	-0.590846	-0.132147	1.0318	0.0442455
4.135	-0.00140435	0.000871173	3.19493e-05	1.54227	0	-0.446786	-3.5925e-17	2.22857e-17	8.17303e-19	-100.182	807.767	34.6406	2.03173	0	-0.591062	-0.104544	0.842943	0.0361491
4.14	-0.055228	0.0321415	0.000853557	1.55375	0	-0.446791	-3.08828e-16	1.79732e-16	4.77299e-18	-97.1576	807.251	34.8132	2.03233	0	-0.591276	-0.0738322	0.613447	0.0264553
4.145	-0.0593515	0.0324155	0.000463085	1.56632	0	-0.44674	-1.51509e-15	8.27487e-16	1.18214e-17	-94.1599	804.711	35.0643	2.033	0	-0.591488	-0.0413161	0.353096	0.0153857
4.15	-0.0539672	0.0278455	0.00011334	1.57989	0	-0.44665	-3.01385e-15	1.55506e-15	6.32956e-18	-91.1325	800.397	35.4089	2.03377	0	-0.5917	-0.00841384	0.073897	0.00326914
4.155	-0.0455502	0.0223635	-3.52996e-05	1.59432	0	-0.446557	1.1783e-14	-5.785e-15	9.13132e-18	-88.0338	794.515	35.7913	2.03462	0	-0.59191	0.0237553	-0.214395	-0.00965805
4.16	-0.0364554	0.0170996	-8.35382e-05	1.60952	0	-0.446469	1.09749e-14	-5.14782e-15	2.51492e-17	-84.9323	787.369	36.1498	2.03557	0	-0.592113	0.0542923	-0.50332	-0.0231085
4.165	-0.0290174	0.0130471	-9.5307e-05	1.62543	0	-0.446387	7.23815e-15	-3.25448e-15	2.37735e-17	-81.8083	779.114	36.3388	2.03662	0	-0.592307	0.0820473	-0.78139	-0.036445
4.17	-0.0239617	0.0103735	-8.24419e-05	1.64194	0	-0.446326	4.59921e-15	-1.99108e-15	1.58239e-17	-78.6468	769.799	36.275	2.03778	0	-0.592492	0.106468	-1.04211	-0.0491072
4.175	-0.0208088	0.00870836	-5.77649e-05	1.65895	0	-0.446301	2.95164e-15	-1.23524e-15	8.19371e-18	-75.5325	759.512	35.9561	2.03903	0	-0.592674	0.12708	-1.27785	-0.0604945
4.18	-0.0191424	0.00776969	-3.14658e-05	1.67639	0	-0.446315	1.91558e-15	-7.7751e-16	3.14877e-18	-72.4595	748.341	35.4044	2.04038	0	-0.592857	0.143979	-1.48697	-0.0703493
4.185	-0.0187425	0.00740092	-3.68621e-06	1.6942	0	-0.446372	1.19479e-15	-4.7179e-16	2.34987e-19	-69.4623	736.404	34.7355	2.04182	0	-0.593044	0.158057	-1.67564	-0.0790385
4.19	-0.0195789	0.0075437	3.04116e-05	1.71232	0	-0.446477	5.81847e-16	-2.24184e-16	-9.03775e-19	-66.5718	723.843	34.0109	2.04334	0	-0.593234	0.169339	-1.84125	-0.0865139
4.195	-0.0217735	0.00820681	7.59236e-05	1.73069	0	-0.446631	-1.13713e-16	4.28606e-17	3.96516e-19	-63.7486	710.797	33.2498	2.04494	0	-0.593427	0.177487	-1.97898	-0.0925732
4.2	-0.0256835	0.00949229	0.000140771	1.74929	0	-0.446832	-1.14224e-15	4.22159e-16	6.26064e-18	-60.9618	697.41	32.431	2.04661	0	-0.593622	0.182659	-2.08964	-0.0971726
4.205	-0.0319486	0.0116023	0.000237929	1.76807	0	-0.447078	-2.97239e-15	1.07944e-15	2.21361e-17	-58.1781	683.837	31.5266	2.04834	0	-0.593822	0.184884	-2.17316	-0.100188
4.21	-0.0416198	0.0148793	0.000387374	1.78704	0	-0.447366	-6.53038e-15	2.33464e-15	6.07812e-17	-55.3566	670.188	30.5531	2.05014	0	-0.59403	0.18403	-2.228	-0.101572
4.215	-0.0563206	0.019854	0.000618118	1.80616	0	-0.447689	-1.38484e-14	4.88179e-15	1.51986e-16	-52.5081	656.624	29.5969	2.05201	0	-0.594249	0.180498	-2.25716	-0.10174
4.22	-0.0785187	0.0273329	0.000973031	1.82544	0	-0.448041	-2.9458e-14	1.02546e-14	3.65054e-16	-49.6462	643.284	28.7255	2.05395	0	-0.594478	0.174367	-2.25934	-0.10089
4.225	-0.111817	0.0384863	0.00151087	1.84488	0	-0.448416	-6.35886e-14	2.18865e-14	8.59202e-16	-46.7888	630.311	28.037	2.05595	0	-0.594715	0.1663	-2.2403	-0.0996514
4.23	-0.161371	0.0549777	0.00230945	1.86448	0	-0.448807	-1.39771e-13	4.7619e-14	2.00033e-15	-43.9774	617.828	27.534	2.05801	0	-0.594952	0.156937	-2.20477	-0.0982575
4.235	-0.234182	0.0790489	0.00345771	1.88424	0	-0.449208	-3.1242e-13	1.05458e-13	4.61289e-15	-41.2377	605.929	27.1767	2.06012	0	-0.595181	0.146455	-2.15195	-0.0965175
4.24	-0.339391	0.113602	0.00503837	1.90417	0	-0.449611	-7.08425e-13	2.37127e-13	1.05168e-14	-38.5913	594.709	26.9267	2.06226	0	-0.595394	0.135203	-2.08353	-0.0943363
4.245	-0.488032	0.162103	0.00708808	1.92427	0	-0.450007	-1.62338e-12	5.39217e-13	2.35777e-14	-36.0696	584.225	26.7207	2.06443	0	-0.595587	0.123298	-1.99708	-0.0913403
4.25	-0.692835	0.228504	0.00954212	1.94456	0	-0.450388	-3.74745e-12	1.23595e-12	5.16121e-14	-33.682	574.545	26.5611	2.06659	0	-0.595759	0.111011	-1.89362	-0.0875417
4.255	-0.966758	0.316752	0.0121517	1.96504	0	-0.450745	-8.68587e-12	2.84587e-12	1.09177e-13	-31.4758	565.746	26.462	2.06871	0	-0.595906	0.0988884	-1.77742	-0.0831365
4.26	-1.32186	0.430441	0.0144339	1.98571	0	-0.451069	-2.01556e-11	6.56335e-12	2.20088e-13	-29.4811	557.921	26.4212	2.07076	0	-0.596028	0.0871973	-1.65018	-0.078147
4.265	-1.76629	0.57187	0.0156054	2.00657	0	-0.451349	-4.67005e-11	1.51202e-11	4.12606e-13	-27.6478	551.111	26.4112	2.07272	0	-0.596122	0.0758122	-1.51119	-0.0724213
4.27	-2.30055	0.740941	0.0146461	2.02764	0	-0.451578	-1.07714e-10	3.46914e-11	6.85741e-13	-25.994	545.339	26.4022	2.07456	0	-0.596184	0.0648871	-1.36129	-0.0659061
4.275	-2.91312	0.933807	0.0103806	2.04889	0	-0.451748	-2.46518e-10	7.9022e-11	8.78446e-13	-24.4691	540.606	26.3338	2.07628	0	-0.596218	0.0543517	-1.20081	-0.0584935
4.28	-3.5842	1.14417	0.00165557	2.07034	0	-0.451852	-5.58534e-10	1.78299e-10	2.57992e-13	-23.0215	536.869	26.2024	2.07786	0	-0.596229	0.0442248	-1.03134	-0.0503354
4.285	-4.28555	1.36319	-0.0124423	2.09196	0	-0.451883	-1.2507e-09	3.97835e-10	-3.63117e-12	-21.6369	534.099	26.0645	2.07933	0	-0.596225	0.0346492	-0.855302	-0.0417395
4.29	-4.98565	1.5811	-0.0325269	2.11374	0	-0.451835	-2.76598e-09	8.77178e-10	-1.80456e-11	-20.3059	532.236	25.9659	2.0807	0	-0.596212	0.0256873	-0.673286	-0.0328473
